{"title":"Cartel Land 2015 Movies 720p HDRip XviD ESubs New +sample ☻rDX☻","uid":12516557,"size":746601934,"categoryP":"video","categoryS":"movies","magnet":"?xt=urn:btih:2d232702c3343fa526f8834279ba03fc5ea17ee0&amp;dn=Cartel+Land+2015+Movies+720p+HDRip+XviD+ESubs+New+%2Bsample+%E2%98%BBrDX%E2%98%BB&amp;tr=udp%3A%2F%2Ftracker.leechers-paradise.org%3A6969&amp;tr=udp%3A%2F%2Fzer0day.ch%3A1337&amp;tr=udp%3A%2F%2Fopen.demonii.com%3A1337&amp;tr=udp%3A%2F%2Ftracker.coppersurfer.tk%3A6969&amp;tr=udp%3A%2F%2Fexodus.desync.com%3A6969","seeders":2,"leechers":2,"uploader":"basicssom","files":2,"time":1443778633,"description":"----------------------------------------------------------------\r\nCartel Land 2015 English Movies 720p HDRip XviD AAC ESubs New Source with sample ~ ☻rDX☻\r\n\r\nSCREEN SHOTS &amp; POSTER:\r\n \nhttp://doctorhosts.com/2015/10/CartelLand/11.html \nhttp://doctorhosts.com/2015/10/CartelLand/1.html \nhttp://doctorhosts.com/2015/10/CartelLand/2.html \nhttp://doctorhosts.com/2015/10/CartelLand/3.html \nhttp://doctorhosts.com/2015/10/CartelLand/4.html \nhttp://doctorhosts.com/2015/10/CartelLand/5.html \nhttp://doctorhosts.com/2015/10/CartelLand/6.html \nhttp://doctorhosts.com/2015/10/CartelLand/7.html \nhttp://doctorhosts.com/2015/10/CartelLand/8.html \nhttp://doctorhosts.com/2015/10/CartelLand/9.html \nhttp://doctorhosts.com/2015/10/CartelLand/10.html\r\n\r\nFormat                                   : Matroska\r\nFormat version                           : Version 4 / Version 2\r\nFile size                                : 707 MiB\r\nOverall bit rate                         : 1 016 Kbps\r\nMovie name                               : Cartel Land 2015 English Movies 720p HDRip XviD AAC New Source ~ rDX ~\r\n\r\nVideo\r\nID                                       : 1\r\nFormat                                   : AVC\r\nFormat/Info                              : Advanced Video Codec\r\nFormat profile                           :   \r\nFormat settings, CABAC                   : Yes\r\nFormat settings, ReFrames                : 5 frames\r\nCodec ID                                 : V_MPEG4/ISO/AVC\r\nBit rate                                 : 871 Kbps\r\nWidth                                    : 1 280 pixels\r\nHeight                                   : 720 pixels\r\nDisplay aspect ratio                     : 16:9\r\nFrame rate mode                          : Constant\r\nFrame rate                               : 23.976 fps\r\nColor space                              : YUV\r\nChroma subsampling                       : 4:2:0\r\nBit depth                                : 8 bits\r\nScan type                                : Progressive\r\nBits/(Pixel*Frame)                       : 0.039\r\nStream size                              : 604 MiB (85%)\r\nTitle                                    : ~ rDX ~\r\nWriting library                          : XviD\r\nForced                                   : No\r\n\r\nAudio\r\nID                                       : 2\r\nFormat                                   : AC-3\r\nFormat/Info                              : Audio Coding 3\r\nMode extension                           : CM (complete main)\r\nFormat settings, Endianness              : Big\r\nCodec ID                                 : A_AC3\r\nBit rate mode                            : Constant\r\nBit rate                                 : 128 Kbps\r\nChannel(s)                               : 2 channels\r\nChannel positions                        : Front: L R\r\nSampling rate                            : 48.0 KHz\r\nBit depth                                : 16 bits\r\nCompression mode                         : Lossy\r\nStream size                              : 89.1 MiB (13%)\r\nTitle                                    : ~ rDX ~\r\nDefault                                  : Yes\r\nForced                                   : No","torrent":{"xt":"urn:btih:2d232702c3343fa526f8834279ba03fc5ea17ee0","amp;dn":"Cartel+Land+2015+Movies+720p+HDRip+XviD+ESubs+New+%2Bsample+%E2%98%BBrDX%E2%98%BB","amp;tr":["udp%3A%2F%2Ftracker.leechers-paradise.org%3A6969","udp%3A%2F%2Fzer0day.ch%3A1337","udp%3A%2F%2Fopen.demonii.com%3A1337","udp%3A%2F%2Ftracker.coppersurfer.tk%3A6969","udp%3A%2F%2Fexodus.desync.com%3A6969"],"infoHash":"2d232702c3343fa526f8834279ba03fc5ea17ee0","infoHashBuffer":{"type":"Buffer","data":[45,35,39,2,195,52,63,165,38,248,131,66,121,186,3,252,94,161,126,224]},"announce":[],"urlList":[]}}